Coordinates
version=1
nRows=14
nColumns=21
inDegrees=yes

Units are S.I. units (second, meters, Newtons, ...)
If the header above contains a line with 'inDegrees', this indicates whether rotational values are in degrees (yes) or radians (no).

endheader
time	bJoint_3	seatpos	slocangle	soarinout	sblpos	plocangle	poarinout	pblpos	hipangle	kneeangle	footangle	lbackangle	uarmleft_out	uarmleft_trn	uarmleft_up	se_inout	se_updown	handleleft_out	handleleft_trn	handleleft_up
      5.24500000	      0.00000005	     -0.00320451	    -29.47637728	     13.78901625	    -13.78901625	      0.00000000	     10.33757749	    -10.33757749	     93.73456380	      4.52391594	      8.25847975	    -40.26131167	     67.21707025	     -7.51841751	   -372.47379968	    -71.92093898	    338.16688533	    201.26256322	   -209.91572507	   -183.21074145
      5.25000000	      0.00000005	     -0.00320040	    -29.26882916	     13.78355173	    -13.78355173	      0.00000000	     10.33757749	    -10.33757749	     93.74147883	      4.51106133	      8.25254016	    -40.26415054	     66.85705907	     -7.02210365	   -372.87199115	    -70.88165510	    338.62068464	    200.95075699	   -209.70397824	   -182.96159011
      5.25500000	      0.00000005	     -0.00323614	    -29.04580000	     13.77882576	    -13.77882576	     -0.00000000	     10.33757749	    -10.33757749	     93.68197766	      4.62167491	      8.30365256	    -40.26185118	     66.39394451	     -6.55061588	   -373.13904075	    -69.78264057	    339.10175401	    200.63147614	   -209.35726204	   -182.59172068
      5.26000000	      0.00000005	     -0.00330899	    -28.80852309	     13.77438060	    -13.77438060	      0.00000000	     10.33757749	    -10.33757749	     93.56493136	      4.83929514	      8.40422650	    -40.25421321	     66.12685953	     -5.89598030	   -373.58347452	    -68.59125186	    339.36701953	    200.26712446	   -209.29730720	   -182.46744495
      5.26500000	      0.00000005	     -0.00332422	    -28.57480626	     13.77495282	    -13.77495282	      0.00000000	     10.33757749	    -10.33757749	     93.54111610	      4.88357880	      8.42469490	    -40.25449505	     65.71988059	     -5.32461895	   -373.95030303	    -67.39299554	    339.77657415	    199.90025443	   -209.06375604	   -182.19611717
      5.27000000	      0.00000005	     -0.00337939	    -28.35606321	     13.76997724	    -13.76997724	      0.00000000	     10.33757749	    -10.33757749	     93.45662615	      5.04069801	      8.49732415	    -40.25071385	     65.26283507	     -4.85100669	   -374.28320250	    -66.29593193	    340.31511676	    199.56574182	   -208.78107615	   -181.82140225
      5.27500000	      0.00000005	     -0.00339100	    -28.15440302	     13.76434689	    -13.76434689	     -0.00000000	     10.33757749	    -10.33757749	     93.43917113	      5.07316021	      8.51233135	    -40.25105513	     64.90638207	     -4.34910289	   -374.72425198	    -65.24385153	    340.79899593	    199.22203721	   -208.65055635	   -181.55822294
      5.28000000	      0.00000005	     -0.00339831	    -27.96950094	     13.77230907	    -13.77230907	     -0.00000000	     10.33757749	    -10.33757749	     93.42824121	      5.09348774	      8.52172895	    -40.25171133	     64.57508880	     -3.88369633	   -375.18283726	    -64.29390488	    341.25286479	    198.91837300	   -208.55629210	   -181.35575150
      5.28500000	      0.00000005	     -0.00347113	    -27.75491559	     13.76729646	    -13.76729646	     -0.00000000	     10.33757749	    -10.33757749	     93.32167906	      5.29169023	      8.61336929	    -40.24650327	     64.12241427	     -3.40723604	   -375.63411348	    -63.20748853	    341.89000067	    198.56956032	   -208.36889176	   -180.97661255
      5.29000000	      0.00000005	     -0.00349607	    -27.55712363	     13.76178663	    -13.76178663	      0.00000000	     10.33757749	    -10.33757749	     93.28610492	      5.35786424	      8.64396916	    -40.24552726	     63.76741537	     -2.90205595	   -376.10876721	    -62.14992591	    342.39180344	    198.20678076	   -208.29533623	   -180.70534766
      5.29500000	      0.00000005	     -0.00350492	    -27.33404523	     13.75626351	    -13.75626351	     -0.00000000	     10.33757749	    -10.33757749	     93.27357350	      5.38117570	      8.65474920	    -40.24580183	     63.45325840	     -2.25361138	   -376.67830178	    -60.90268954	    342.80133054	    197.75661137	   -208.32874062	   -180.50610806
      5.30000000	      0.00000005	     -0.00357959	    -27.15269173	     13.74446647	    -13.74446647	     -0.00000000	     10.33757749	    -10.33757749	     93.17001347	      5.57383917	      8.74385264	    -40.24087455	     63.05216070	     -1.84575095	   -377.09918257	    -59.94648337	    343.40847873	    197.42567470	   -208.21315663	   -180.13259701
      5.30500000	      0.00000005	     -0.00355158	    -26.94628562	     13.73971279	    -13.73971279	      0.00000000	     10.33757749	    -10.33757749	     93.20844148	      5.50234403	      8.71078550	    -40.24458006	     62.54612404	     -1.37037009	   -377.30540166	    -58.75072325	    343.88545243	    197.01917844	   -207.88718835	   -179.69628424
      5.31000000	      0.00000005	     -0.00358489	    -26.76855363	     13.74774137	    -13.74774137	     -0.00000000	     10.33757750	    -10.33757750	     93.16251359	      5.58779062	      8.75030422	    -40.24269859	     62.21518450	     -0.89608913	   -377.75044617	    -57.76940710	    344.30018858	    196.67310731	   -207.85940518	   -179.47517375
